<svg id="Capa_1" enable-background="new 0 0 512 512" height="512" viewBox="0 0 512 512" width="512" xmlns="http://www.w3.org/2000/svg"><g><g><path d="m256 322.66c-141.387 0-244.363-154.047-223.93-190.821 43.691-78.631 127.596-131.839 223.93-131.839 96.333 0 180.237 53.206 223.928 131.836 20.434 36.774-82.541 190.824-223.928 190.824z" fill="#bc98e6"/><path d="m512 256c0 26.051-3.891 51.191-11.129 74.871-5.031 16.469-11.672 32.231-19.75 47.109-8.25 15.2-147.391 51.568-225.121 51.568s-216.871-36.368-225.109-51.568c-3.289-6.031-6.332-12.21-9.121-18.531-14-31.629-21.77-66.629-21.77-103.449 0-46.219 12.25-89.57 33.68-127 44.121 77.07 127.16 129 222.32 129s178.211-51.93 222.32-129c21.43 37.43 33.68 80.781 33.68 127z" fill="#9a65d9"/><path d="m481.262 377.699c-7.16 13.223-15.434 25.742-24.723 37.43-1.913 2.41-3.869 4.785-5.867 7.123-6.816 7.975-233.108 87.573-251.336 83.454-44.125-9.973-83.93-31.344-116.157-60.854-10-9.153-19.282-19.09-27.719-29.723-9.289-11.688-17.563-24.207-24.723-37.43z" fill="#5541b6"/></g><g><path d="m210.4 122.884h-22.8-22.8c-18.859 0-34.2 15.341-34.2 34.2v46.359h56.999 57.001v-46.359c0-18.859-15.341-34.2-34.2-34.2z" fill="#dce0ef"/><path d="m244.6 157.084c0-18.859-15.341-34.2-34.2-34.2h-22.8v80.559h57z" fill="#cad0e7"/><g><g><path d="m187.601 350.882c-20.571 0-40.41-6.065-57.388-17.539-.475-.295-17.65-13.325 8.095-21.813 1.75-.577 4.349-1.071 6.508-1.602 5.035-1.26 8.586-5.807 8.586-11.045v-30.872l17.11 9.902c5.165 2.99 11.075 4.57 17.089 4.57 6.015 0 11.924-1.58 17.089-4.57l17.11-9.902v30.872c0 5.238 3.551 9.785 8.634 11.057 1.834.459 4.622.938 6.156 1.432 26.148 8.433 9.103 21.492 8.594 21.838-17.021 11.561-36.933 17.672-57.583 17.672z" fill="#ecbea6"/></g><path d="m245.183 333.211c.509-.346 17.555-13.405-8.594-21.838-1.533-.495-4.321-.973-6.156-1.432-5.083-1.272-8.634-5.819-8.634-11.057v-30.872l-17.11 9.902c-5.166 2.99-11.075 4.57-17.089 4.57v68.399c20.651-.001 40.563-6.112 57.583-17.672z" fill="#de916b"/><path d="m269.824 319.791-2.424-.608-10.64 2.82-12.16-8.52-8.01-2.11-4.218 2.977c-13.224 8.983-28.705 13.733-44.771 13.733s-31.547-4.75-44.771-13.733l-4.522-2.819-8.466 2.075-12.16 11.438-10.64-5.844-2.424.593c-25.019 6.255-43.175 29.83-43.175 56.057v21.394h45.599l10.64-9.12 12.16 9.12h114.758l10.64-7.6 12.16 7.6h45.6v-21.394c-.001-26.23-18.157-49.805-43.176-56.059z" fill="#e36565"/><path d="m117.208 324.782-10.167-5.584-2.424.593c-25.019 6.255-43.175 29.83-43.175 56.057v21.394h45.599l10.167-8.714z" fill="#ea8c8b"/><path d="m244.6 397.241 10.64-7.6 12.16 7.6h45.6v-21.394c0-26.227-18.156-49.802-43.175-56.057l-2.424-.608-10.64 2.82-12.16-8.52-8.01-2.11-4.218 2.977c-13.224 8.983-28.705 13.733-44.771 13.733v69.159z" fill="#da3f3e"/><g><g><path d="m267.4 319.183v78.058h-22.8v-83.758z" fill="#3e2d3f"/></g><g><path d="m129.841 313.604v83.637h-22.799v-78.043z" fill="#524253"/></g></g></g><path d="m187.601 203.443h-56.999v22.8c0 31.428 25.572 56.999 56.999 56.999s56.999-25.572 56.999-56.999v-22.8z" fill="#f6dbcb"/><path d="m244.6 226.243v-22.8h-56.999v79.799c31.427.001 56.999-25.571 56.999-56.999z" fill="#ecbea6"/><g><path d="m450.558 422.371v-70.729h-126.159-125.398v153.98c18.33 4.168 37.406 6.378 56.999 6.378 77.868 0 147.605-34.774 194.558-89.629z" fill="#e6fcc4"/><path d="m450.558 422.371v-70.729h-97.635-97.047v160.357c.042 0 .083.002.125.002 77.867-.001 147.604-34.775 194.557-89.63z" fill="#cdfa89"/><path d="m324.399 502.745c49.794-13.773 93.491-42.208 126.159-80.374v-70.729h-126.159z" fill="#a8eb58"/><path d="m244.6 420.041h22.8v22.8h-22.8z" fill="#80cf8c"/><path d="m381.399 420.041h22.8v22.8h-22.8z" fill="#599d8a"/><ellipse cx="324.399" cy="431.441" fill="#80cf8c" rx="34.2" ry="34.2" transform="matrix(.415 -.91 .91 .415 -202.776 547.47)"/><path d="m358.599 431.441c0-18.859-15.341-34.2-34.2-34.2v68.399c18.859.001 34.2-15.34 34.2-34.199z" fill="#599d8a"/></g><path d="m295.276 171.159c-20.495 13.66-44.353 20.885-68.978 20.885h-38.697-38.697c-24.625 0-48.483-7.225-68.978-20.885l-12.647 18.97c24.258 16.165 52.479 24.715 81.625 24.715h38.697 38.697c29.145 0 57.367-8.55 81.625-24.715z" fill="#fbf5eb"/><path d="m307.923 190.129-12.647-18.97c-20.495 13.66-44.353 20.885-68.978 20.885h-38.697v22.8h38.697c29.145-.001 57.367-8.55 81.625-24.715z" fill="#dce0ef"/></g><g fill="#fff"><path d="m208.558 59.392h-1.524c-6.754 0-12.226-5.477-12.226-12.227v-1.523h-8.715v1.523c0 6.75-5.477 12.227-12.227 12.227h-1.527v8.715h1.527c6.75 0 12.227 5.472 12.227 12.226v1.528h8.715v-1.528c0-6.754 5.472-12.226 12.226-12.226h1.524z"/><path d="m329.021 59.949h-1.524c-6.754 0-12.226-5.477-12.226-12.227v-1.523h-8.715v1.523c0 6.75-5.477 12.227-12.227 12.227h-1.527v8.715h1.527c6.75 0 12.227 5.472 12.227 12.226v1.528h8.715v-1.528c0-6.754 5.472-12.226 12.226-12.226h1.524z"/><path d="m413.366 132.734h-1.524c-6.754 0-12.226-5.477-12.226-12.227v-1.523h-8.715v1.523c0 6.75-5.477 12.227-12.227 12.227h-1.527v8.715h1.527c6.75 0 12.227 5.472 12.227 12.226v1.528h8.715v-1.528c0-6.754 5.472-12.226 12.226-12.226h1.524z"/><path d="m381.294 237.701h-1.524c-6.754 0-12.226-5.477-12.226-12.227v-1.523h-8.715v1.523c0 6.75-5.477 12.227-12.227 12.227h-1.527v8.715h1.527c6.75 0 12.227 5.472 12.227 12.226v1.528h8.715v-1.528c0-6.754 5.472-12.226 12.226-12.226h1.524z"/><path d="m463.899 280.092h-1.524c-6.754 0-12.226-5.477-12.226-12.227v-1.523h-8.715v1.523c0 6.75-5.477 12.227-12.227 12.227h-1.527v8.715h1.527c6.75 0 12.227 5.472 12.227 12.226v1.528h8.715v-1.528c0-6.754 5.472-12.226 12.226-12.226h1.524z"/></g></g></svg>